PathFileType	4	(X/Y/Z)	C:/Users/beibeiliu/ov580/test_trc\sequence.42_training_dense_right.trc
DataRate	CameraRate	NumFrames	NumMarkers	Units	OrigDataRate	OrigDataStartFrame	OrigNumFrames
120	120	23	19	mm	120	1	95
Frame#	Time	ThumbCMC			ThumbMCP			ThumbIP			ThumbTip			IndexMCP			IndexPIP			IndexTip			MiddleMCP			MiddlePIP			MiddleTip			RingMCP			RingPIP			RingTip			PinkyMCP			PinkyPIP			PinkyTip			BackHand1			BackHand2			BackHand3	
		X0	Y0	Z0	X1	Y1	Z1	X2	Y2	Z2	X3	Y3	Z3	X4	Y4	Z4	X5	Y5	Z5	X6	Y6	Z6	X7	Y7	Z7	X8	Y8	Z8	X9	Y9	Z9	X10	Y10	Z10	X11	Y11	Z11	X12	Y12	Z12	X13	Y13	Z13	X14	Y14	Z14	X15	Y15	Z15	X16	Y16	Z16	X17	Y17	Z17	X18	Y18	Z18	
0	0	194.979	45.8521	162.403	199.502	58.213	128.871	213.709	49.6957	103.349	224.374	33.4635	87.814	245.15	47.7902	107.129	246.581	55.9317	80.2072	251.423	63.0599	60.5488	248.885	14.1064	101.301	254.357	16.8323	78.0428	265.365	11.261	52.729	220.067	4.65952	95.6949	191.002	14.2889	88.0269	172.634	21.7398	116.683	211.381	-9.0136	102.502	184.019	2.81697	98.8212	168.701	13.5716	123.182	229.757	-5.10512	151.167	214.765	-4.76683	181.175	223.958	25.9564	170.481	
1	0.00833333	186.293	49.6054	156.281	184.277	55.8397	128.708	200.639	49.1896	100.977	210.695	37.8595	83.7462	230.486	55.4904	103.061	231.099	64.5544	76.6146	234.44	65.3351	50.6147	241.849	27.4029	100.48	249.789	26.4618	72.2842	261.182	21.5516	48.8975	215.391	10.7061	93.0747	187.45	5.3598	86.0093	166.662	16.4247	113.8	210.987	-6.60187	103.868	180.75	-1.26593	98.9632	167.3	11.6088	123.776	227.618	4.41087	150.206	213.531	2.76183	179.783	218.44	35.4708	165.751	
2	0.0166667	166.211	46.5935	155.068	167.735	49.4334	122.376	181.439	46.8086	95.1356	196.711	32.4345	82.5067	210.973	56.9183	95.2727	207.925	63.0887	72.108	211.822	60.9764	45.492	230.991	32.8085	91.1334	237.462	31.6335	68.1442	250.334	26.3384	42.9919	208.696	6.98692	91.3694	181.839	1.37271	83.7858	160.073	5.0074	110.908	207.228	-6.55399	100.691	178.954	-10.4715	98.1426	160.998	-0.325959	119.44	222.004	11.4814	146.477	211.348	7.65835	175.504	205.135	39.2886	162.074	
3	0.025	150.738	39.8513	147.286	146.635	39.6536	117.354	164.344	35.1402	89.6939	181.6	21.964	76.5779	187.164	52.0665	88.1343	183.223	51.5846	58.5073	187.218	46.0055	34.8025	216.1	28.6238	87.5404	222.892	25.0735	61.3499	233.016	19.9251	38.099	199.211	3.03249	86.7107	171.376	-12.6297	84.5525	154.449	-6.22424	111.617	202.07	-10.2259	101.06	176.18	-20.4665	98.8531	155.293	-10.5062	125.268	211.778	20.0729	142.419	200.207	13.9465	173.778	187.613	44.047	151.079	
4	0.0333333	136.818	29.7016	142.477	132.949	22.9928	114.735	146.999	18.1772	87.1924	168.435	4.66405	76.3299	168.937	35.5314	77.007	162.398	31.684	54.9643	165.73	21.1129	30.2778	196.47	22.8013	83.2466	204.326	12.7551	54.9623	212.919	6.56275	32.9403	191.127	-5.3394	89.9022	164.713	-26.2279	86.6908	149.349	-20.0816	116.078	197.345	-19.2058	104.166	167.585	-33.4143	104.322	152.525	-22.047	129.755	199.372	18.0265	140.663	194.501	15.9805	171.109	175.144	35.939	148.973	
5	0.0416667	126.699	16.3433	140.11	123.235	5.99585	115.577	132.591	-1.02785	91.4673	153.721	-12.024	78.4231	150.848	16.5518	74.8775	149.973	4.32149	51.1399	144.081	-4.97791	26.7562	184.625	5.49269	80.1857	191.07	-6.62878	56.6588	196.067	-16.0714	32.5121	181.111	-19.9444	86.9459	163.488	-44.7985	89.6377	145.739	-34.755	115.243	189.263	-32.9094	103.965	165.526	-46.6738	106.949	147.398	-33.0032	135.863	192.773	8.87525	135.525	183.682	13.9241	164.058	164.032	27.9246	140.131	
6	0.05	121.543	5.33206	142.239	113.17	-5.13279	115.697	125.362	-15.0044	88.2518	145.895	-27.3809	77.4347	142.892	0.354133	74.6636	135.426	-12.3622	52.0026	139.018	-27.7523	31.4312	173.941	-7.54939	77.4136	179.061	-22.7656	56.4702	185.863	-37.3925	32.9911	178.066	-34.3099	89.7971	158.73	-57.8911	95.1104	142.954	-46.4523	122.022	183.655	-39.6807	107.746	160.03	-59.091	116.223	144.813	-39.1292	139.464	182.971	4.71578	135.746	175.064	10.2594	163.962	154.232	20.2321	138.069	
7	0.0583333	116.99	0.995643	146.411	111.625	-11.9023	117.025	123.331	-23.1163	91.8633	146.21	-35.7746	80.2255	138.351	-6.69278	74.7757	134.596	-24.1408	52.8826	132.509	-38.4526	31.4156	172.645	-18.7143	78.0479	176.001	-33.8321	57.0446	184.957	-52.1225	33.2385	174.512	-43.7368	92.84	154.588	-65.8376	100.579	137.501	-51.1467	123.585	181.682	-46.5487	110.711	157.933	-64.3865	116.616	141.545	-45.6573	142.483	181.672	-1.11678	131.548	174.095	6.80644	165.77	150.261	17.3408	139.874	
8	0.0666667	121.334	-0.33234	143.328	110.821	-13.0413	118.394	121.774	-23.9769	95.463	141.922	-37.4768	81.6575	139.494	-9.02568	74.7812	132.872	-22.0246	54.1545	133.033	-36.2349	35.6432	172.192	-19.4342	79.523	175.112	-37.244	55.787	178.474	-50.4941	37.364	172.418	-40.1877	93.8364	153.006	-64.5931	97.8139	136.021	-50.8484	127.148	179.766	-50.4329	110.552	153.701	-63.4735	118.212	142.523	-48.1754	143.356	185.147	-4.37277	134.382	177.958	2.93344	163.945	153.486	14.364	142.063	
9	0.075	117.864	4.46616	148.3	109.475	-11.8492	119.885	117.854	-22.9188	96.1598	138.155	-36.8783	80.7211	140.813	-5.68119	76.039	130.22	-15.4905	58.3756	128.835	-32.0214	34.0591	168.634	-17.5955	76.7959	171.695	-35.6011	56.585	174.224	-48.5475	36.7357	168.725	-40.9793	96.1728	146.56	-62.3871	100.84	129.713	-51.1089	129.029	176.869	-52.127	112.728	149.93	-62.7212	121.202	135.31	-44.3063	142.678	179.133	-3.51123	136.59	177.944	2.11293	164.032	156.657	16.6469	144.341	
10	0.0833333	118.845	5.0605	148.038	104.869	-10.7183	120.535	109.224	-24.5078	96.3434	127.365	-38.2767	80.952	136.378	0.596865	81.2545	126.083	-11.1895	55.8841	128.59	-23.2244	35.8331	165.246	-18.6476	80.2623	167.803	-33.8408	62.0465	168.866	-49.3356	38.818	161.148	-44.5162	97.5218	138.922	-62.169	105.896	123.108	-50.9445	133.925	170.541	-52.3498	115.208	143.911	-60.709	123.759	129.74	-40.766	148.182	176.95	-3.08192	139.285	175.313	4.84442	168.649	152.864	16.0466	146.39	
11	0.0916667	113.659	4.87448	153.729	104.203	-12.0713	128.1	105.181	-25.9741	98.0959	115.749	-39.5861	79.3086	131.891	0.488701	81.2846	126.121	-9.98246	58.0249	123.383	-20.5459	34.7915	159.439	-17.2589	84.0317	162.074	-35.5379	62.0434	161.746	-48.9123	39.0878	156.11	-44.9144	99.8471	133.993	-63.0427	110.001	117.528	-49.2785	137.983	160.831	-51.3454	114.545	136.475	-61.2801	128.623	126.348	-43.7115	152.421	176.725	-7.43128	136.798	172.352	1.92325	168.913	148.443	16.2324	143.443	
12	0.1	109.695	4.22789	153.582	99.9842	-14.2873	129.682	98.6853	-27.1683	105.754	106.594	-39.9701	84.9421	128.774	-2.16981	80.4478	123.696	-13.5196	60.2677	119.066	-20.4866	40.7154	156.448	-22.8695	81.1546	158.648	-42.6257	63.1351	158.78	-55.9837	42.6719	150.734	-48.2129	101.801	128.328	-66.5227	116.028	112.628	-51.1928	140.125	158.94	-56.564	117.552	133.534	-62.6027	129.809	121.862	-44.3248	152.512	173.921	-7.4627	138.63	169.671	-1.18683	169.495	147.558	16.2147	148.046	
13	0.108333	113.464	0.185863	153.358	98.6368	-17.2317	130.647	100.42	-29.6845	106.794	105.201	-43.0581	88.3636	131.705	-7.23877	85.0744	124.416	-17.4613	62.1448	119.081	-26.9769	37.2762	159.12	-26.6686	88.6318	157.63	-43.1558	68.2091	158.603	-60.9011	42.9272	150.861	-53.938	105.086	126.44	-65.0238	114.229	113.191	-57.1538	141.683	161.084	-58.9369	121.983	132.15	-65.2225	135.248	120.223	-48.6254	153.076	172.224	-9.92807	143.161	169.908	-3.15675	169.876	146.741	14.4385	149.132	
14	0.116667	112.546	0.739516	155.927	95.6261	-15.8036	133.989	99.6349	-29.5686	109.393	109.251	-45.1055	87.3261	129.925	-7.27547	84.4397	123.767	-19.7954	63.3849	118.331	-26.9939	43.0333	154.975	-27.5384	88.9043	156.683	-45.2076	72.4192	156.102	-61.4789	46.8864	150.585	-54.9006	109.609	122.982	-68.3503	121.585	110.27	-53.3084	147.959	158.297	-59.3533	125.581	132.886	-69.8994	138.618	118.222	-47.6595	160.783	174.82	-15.2904	145.877	169.303	-3.16378	174.309	148.102	9.87377	149.101	
15	0.125	111.74	3.21824	162.204	97.1777	-14.5154	141.239	96.614	-27.542	116.301	105.147	-42.1869	97.892	128.418	-6.32991	92.3429	119.015	-17.429	70.4408	114.649	-25.2608	49.6319	153.249	-30.4504	94.057	149.732	-45.4153	73.5761	149.962	-59.5574	53.4599	143.391	-52.4877	113.793	122.723	-70.4204	126.76	107.945	-55.0397	155.847	153.957	-61.5806	131.262	128.478	-68.6579	144.827	115.607	-48.6698	166.937	175.497	-17.491	153.104	172.995	-8.24317	179.553	148.795	9.46712	159.424	
16	0.133333	113.477	0.146236	175.364	93.774	-13.9779	151.508	96.0366	-28.9694	126.237	99.4292	-43.6046	107.482	125.695	-8.68145	102.485	114.888	-17.0413	82.6587	112.079	-29.8967	58.9225	149.395	-30.824	106.397	144.331	-47.2835	86.4187	144.866	-66.2307	66.5714	141.292	-52.9433	125.694	113.081	-68.1445	138.004	102.185	-52.6261	165.968	150.288	-64.8607	141.476	120.318	-67.0972	155.025	111.701	-47.1592	177.056	171.793	-21.0187	162.764	171.566	-12.2288	192.671	149.096	5.35811	170.987	
17	0.141667	110.606	-2.0108	182.15	94.4675	-19.9843	160.158	87.4171	-31.312	137.743	91.1544	-45.2481	118.962	124.973	-16.0831	111.098	114.274	-24.5354	91.2911	108.081	-34.7211	70.9222	146.005	-41.5996	113.927	140.08	-57.4339	93.3643	135.659	-70.8197	71.9312	133.452	-60.146	132.61	106.882	-73.2606	149.267	97.8159	-55.783	171.966	140.203	-70.341	148.631	114.318	-71.7406	164.46	107.166	-54.4319	188.428	169.958	-29.7717	170.727	169.591	-18.9881	202.28	146.495	1.37179	178.275	
18	0.15	107.045	-3.92368	189.842	90.5908	-22.2016	164.404	82.5007	-34.0289	142.625	85.1709	-48.8847	121.047	121.276	-18.1059	117.811	112.45	-28.0605	97.7879	106.425	-41.5066	72.7305	141.309	-44.6184	115.712	137.014	-61.0045	101.159	132.448	-80.1609	77.2274	134.539	-67.8704	139.072	105.006	-77.8514	147.972	95.132	-59.3212	176.434	139.508	-75.4388	153.618	109.591	-75.5969	167.685	104.628	-59.7766	190.103	164.274	-33.6426	172.02	163.465	-25.0704	203.428	147.507	-5.97965	181.664	
19	0.158333	106.399	-6.78058	187.587	90.9351	-24.0819	165.426	82.9767	-34.7397	145.132	81.843	-48.82	122.396	120.508	-21.0675	120.766	109.855	-29.774	97.365	102.299	-39.272	76.3035	140.811	-51.0246	118.549	132.712	-64.9852	99.5051	126.628	-81.3843	76.2989	127.618	-71.3842	137.216	99.9091	-77.3423	148.224	93.981	-59.4514	178.066	136.324	-76.2252	154.443	108.397	-80.154	167.421	99.82	-56.7261	189.8	161.887	-37.1595	170.537	164.214	-29.6806	201.25	146.461	-8.88978	184.066	
20	0.166667	105.541	-12.0342	187.986	85.8374	-24.4755	170.364	74.4263	-35.1619	144.192	79.9465	-50.595	125.103	119.808	-26.9717	119.643	106.402	-31.5158	97.8579	99.1429	-43.385	76.612	135.674	-47.7212	120.891	129.361	-64.6684	101.71	118.848	-81.3361	75.1766	124.395	-71.8749	136.767	96.0937	-79.4421	149.464	91.8022	-67.1645	178.113	131.235	-83.4829	155.477	106.131	-84.5533	169.709	99.3552	-63.0462	194.483	162.323	-42.577	176.766	163.296	-32.5505	205.018	140.064	-9.90083	179.075	
21	0.175	102.275	-13.0045	188.835	84.4179	-29.6919	168.944	72.0631	-38.7304	144.827	72.3645	-52.2836	128.066	115.568	-29.8622	118.031	105.778	-34.4882	100.593	96.5596	-48.9836	74.7256	132.328	-53.5414	120.411	121.653	-67.2184	98.7455	114.411	-85.258	78.3089	122.301	-78.1062	137.945	96.7569	-85.8192	148.137	87.3738	-71.7108	178.122	125.309	-86.6494	156.014	101.384	-84.1741	170.455	95.9639	-63.6867	193.493	156.799	-41.8188	176.997	158.797	-35.6735	206.026	141.57	-15.3058	184.428	
22	0.183333	101.961	-16.045	191.429	82.5523	-30.8036	174.406	73.4912	-42.3694	145.879	71.8118	-56.3021	127.994	114.619	-31.0504	120.049	103.8	-40.5056	99.6771	97.6686	-53.2758	78.8614	131.727	-56.8313	126.007	121.363	-72.4103	103.758	108.844	-89.8883	79.8949	124.231	-79.1441	141.532	93.9019	-88.6471	148.617	84.6995	-75.9804	180.068	123.002	-86.1549	156.735	100.12	-89.2308	173.324	92.7124	-64.2491	193.574	155.539	-46.5186	174.09	156.155	-36.9478	209.029	138.913	-18.9308	182.965	
